<?xml version="1.0" encoding="UTF-8" standalone="no"?>
<!-- Svg Vector Icons : http://www.onlinewebfonts.com/icon -->

<svg
   xmlns:dc="http://purl.org/dc/elements/1.1/"
   xmlns:cc="http://creativecommons.org/ns#"
   xmlns:rdf="http://www.w3.org/1999/02/22-rdf-syntax-ns#"
   xmlns:svg="http://www.w3.org/2000/svg"
   xmlns="http://www.w3.org/2000/svg"
   xmlns:sodipodi="http://sodipodi.sourceforge.net/DTD/sodipodi-0.dtd"
   xmlns:inkscape="http://www.inkscape.org/namespaces/inkscape"
   version="1.1"
   x="0px"
   y="0px"
   viewBox="0 0 991.00002 991"
   enable-background="new 0 0 1000 1000"
   xml:space="preserve"
   id="svg2"
   inkscape:version="0.91 r13725"
   sodipodi:docname="ico.svg"
   width="991"
   height="991"
   inkscape:export-filename="/home/tim/projects/MpvLangLearn/image_barnyard/ico.png"
   inkscape:export-xdpi="46.498486"
   inkscape:export-ydpi="46.498486"><defs
     id="defs44"><inkscape:path-effect
       effect="skeletal"
       id="path-effect4864"
       is_visible="true"
       pattern="#path10"
       copytype="single_stretched"
       prop_scale="1"
       scale_y_rel="false"
       spacing="0"
       normal_offset="0"
       tang_offset="0"
       prop_units="false"
       vertical_pattern="false"
       fuse_tolerance="0" /><inkscape:path-effect
       effect="skeletal"
       id="path-effect4286"
       is_visible="true"
       pattern="#path10"
       copytype="single_stretched"
       prop_scale="1"
       scale_y_rel="false"
       spacing="0"
       normal_offset="0"
       tang_offset="0"
       prop_units="false"
       vertical_pattern="false"
       fuse_tolerance="0" /><inkscape:path-effect
       effect="skeletal"
       id="path-effect4260"
       is_visible="true"
       pattern="#path10"
       copytype="single_stretched"
       prop_scale="1"
       scale_y_rel="false"
       spacing="0"
       normal_offset="0"
       tang_offset="0"
       prop_units="false"
       vertical_pattern="false"
       fuse_tolerance="0" /><inkscape:path-effect
       effect="skeletal"
       id="path-effect4232"
       is_visible="true"
       pattern="#path10"
       copytype="single_stretched"
       prop_scale="1"
       scale_y_rel="false"
       spacing="0"
       normal_offset="0"
       tang_offset="0"
       prop_units="false"
       vertical_pattern="false"
       fuse_tolerance="0" /><filter
       inkscape:label="Metallized Ridge"
       inkscape:menu="Ridges"
       inkscape:menu-tooltip="Gel Ridge metallized at its top"
       height="2"
       y="-0.5"
       width="2"
       x="-0.5"
       style="color-interpolation-filters:sRGB"
       id="filter5934"><feGaussianBlur
         stdDeviation="1"
         result="result1"
         id="feGaussianBlur5936" /><feGaussianBlur
         stdDeviation="8"
         result="result6"
         in="result1"
         id="feGaussianBlur5938" /><feComposite
         operator="atop"
         in="result6"
         in2="result1"
         result="result8"
         id="feComposite5940" /><feComposite
         operator="xor"
         result="fbSourceGraphic"
         in="result6"
         in2="result8"
         id="feComposite5942" /><feColorMatrix
         result="fbSourceGraphicAlpha"
         in="fbSourceGraphic"
         values="0 0 0 -1 0 0 0 0 -1 0 0 0 0 -1 0 0 0 0 2 0 "
         id="feColorMatrix5944" /><feGaussianBlur
         result="result0"
         in="fbSourceGraphicAlpha"
         stdDeviation="2.5"
         id="feGaussianBlur5946" /><feSpecularLighting
         specularExponent="35"
         specularConstant="1"
         surfaceScale="4"
         lighting-color="#ffffff"
         result="result1"
         in="result0"
         id="feSpecularLighting5948"><fePointLight
           z="20000"
           y="-10000"
           x="-5000"
           id="fePointLight5950" /></feSpecularLighting><feComposite
         operator="in"
         result="result2"
         in="result1"
         in2="fbSourceGraphicAlpha"
         id="feComposite5952" /><feComposite
         k3="1"
         k2="1"
         operator="arithmetic"
         result="result4"
         in="fbSourceGraphic"
         in2="result2"
         id="feComposite5954"
         k1="0"
         k4="0" /><feComposite
         operator="atop"
         in2="result4"
         result="result91"
         id="feComposite5956" /><feBlend
         mode="multiply"
         in2="result91"
         id="feBlend5958" /></filter><clipPath
       clipPathUnits="userSpaceOnUse"
       id="clipPath5975"><rect
         style="color:#000000;clip-rule:nonzero;display:inline;overflow:visible;visibility:visible;opacity:1;isolation:auto;mix-blend-mode:normal;color-interpolation:sRGB;color-interpolation-filters:linearRGB;solid-color:#000000;solid-opacity:1;fill:none;fill-opacity:1;fill-rule:evenodd;stroke:#000000;stroke-width:4.69999981;stroke-linecap:butt;stroke-linejoin:miter;stroke-miterlimit:4;stroke-dasharray:none;stroke-dashoffset:0;stroke-opacity:1;color-rendering:auto;image-rendering:auto;shape-rendering:auto;text-rendering:auto;enable-background:accumulate"
         id="rect5977"
         width="982.75861"
         height="982.75861"
         x="22.103695"
         y="8.6706972" /></clipPath><clipPath
       clipPathUnits="userSpaceOnUse"
       id="clipPath6037"><rect
         style="color:#000000;clip-rule:nonzero;display:inline;overflow:visible;visibility:visible;opacity:1;isolation:auto;mix-blend-mode:normal;color-interpolation:sRGB;color-interpolation-filters:linearRGB;solid-color:#000000;solid-opacity:1;fill:#2a2a2a;fill-opacity:1;fill-rule:evenodd;stroke:#000000;stroke-width:4.69999981;stroke-linecap:butt;stroke-linejoin:miter;stroke-miterlimit:4;stroke-dasharray:none;stroke-dashoffset:0;stroke-opacity:1;color-rendering:auto;image-rendering:auto;shape-rendering:auto;text-rendering:auto;enable-background:accumulate"
         id="rect6039"
         width="746.05756"
         height="464.41336"
         x="146.72122"
         y="279.36438" /></clipPath></defs><sodipodi:namedview
     pagecolor="#ffffff"
     bordercolor="#666666"
     borderopacity="1"
     objecttolerance="10"
     gridtolerance="10"
     guidetolerance="10"
     inkscape:pageopacity="0"
     inkscape:pageshadow="2"
     inkscape:window-width="1361"
     inkscape:window-height="721"
     id="namedview42"
     showgrid="false"
     inkscape:zoom="0.059"
     inkscape:cx="226.98855"
     inkscape:cy="1233.18"
     inkscape:window-x="5"
     inkscape:window-y="0"
     inkscape:window-maximized="0"
     inkscape:current-layer="svg2"
     fit-margin-top="5"
     fit-margin-left="5"
     fit-margin-right="5"
     fit-margin-bottom="5" /><metadata
     id="metadata4"> Svg Vector Icons : http://www.onlinewebfonts.com/icon <rdf:RDF><cc:Work
     rdf:about=""><dc:format>image/svg+xml</dc:format><dc:type
       rdf:resource="http://purl.org/dc/dcmitype/StillImage" /><dc:title></dc:title></cc:Work></rdf:RDF></metadata><g
     id="g6041"
     transform="translate(0,-86.649995)"><path
       inkscape:connector-curvature="0"
       id="path10"
       d="m 985.5,287.2 0,-71.70001 c 0,-20.3 -16.5,-36.7 -36.8,-36.7 l -906.5,0 c -20.3,0 -36.7,16.5 -36.7,36.7 L 5.5,287.2 c 0,20.3 16.4,36.8 36.7,36.8 l 3.1,0 c 20.3,0 36.7,16.5 36.7,36.7 l 0,442.8 c 0,20.3 -16.5,36.70001 -36.7,36.70001 l -3.1,0 c -20.3,0 -36.7,16.5 -36.7,36.79999 l 0,71.70001 C 5.5,969 21.9,985.5 42.2,985.5 l 906.5,0 c 20.3,0 36.7,-16.5 36.7,-36.79999 L 985.4,877 c 0,-20.29999 -14.4,-36.79999 -32.2,-36.79999 -17.8,0 -32.2,-16.5 -32.2,-36.8 l 0,-442.7 c 0,-20.3 14.4,-36.7 32.2,-36.7 17.9,-0.1 32.3,-16.5 32.3,-36.8 z m -162.3,-68.10001 39,0 c 20.3,0 36.8,14.4 36.8,32.2 0,17.8 -16.5,32.20001 -36.8,32.20001 l -39,0 c -20.3,0 -36.8,-14.40001 -36.8,-32.20001 0.1,-17.7 16.5,-32.2 36.8,-32.2 z m -172.99999,0.1 39,0 c 20.3,0 36.8,14.4 36.8,32.2 0,17.80001 -16.5,32.20002 -36.8,32.20002 l -39,0 c -20.3,0 -36.8,-14.40002 -36.8,-32.20002 0,-17.8 16.5,-32.19999 36.8,-32.19999 z m -173.1,0 39,0 c 20.3,0 36.8,14.4 36.8,32.1 0,17.8 -16.5,32.20001 -36.8,32.20001 l -39,0 c -20.3,0 -36.7,-14.40001 -36.7,-32.20001 0,-17.7 16.4,-32.1 36.7,-32.1 z m -173,0 39,0 c 20.3,0 36.8,14.4 36.8,32.2 0,17.80001 -16.5,32.20002 -36.8,32.20002 l -39,0 c -20.3,0 -36.8,-14.40002 -36.8,-32.20002 0,-17.8 16.5,-32.19999 36.8,-32.19999 z m -173,0 39,0 c 20.3,0 36.7,14.4 36.7,32.2 0,17.80001 -16.5,32.20002 -36.7,32.20002 l -39,0 c -20.3,0 -36.8,-14.40002 -36.8,-32.20002 0,-17.8 16.5,-32.19999 36.8,-32.19999 z m 45.1,733.50002 -39,0 c -20.3,0 -36.7,-14.4 -36.7,-32.20001 0,-17.79999 16.4,-32.2 36.7,-32.2 l 39,0 c 20.3,0 36.7,14.4 36.7,32.2 0.1,17.8 -16.4,32.20001 -36.7,32.20001 z m 173.1,0 -39,0 c -20.3,0 -36.7,-14.4 -36.7,-32.20001 0,-17.79999 16.4,-32.2 36.7,-32.2 l 39,0 c 20.3,0 36.8,14.4 36.8,32.2 -0.1,17.8 -16.6,32.20001 -36.8,32.20001 z m 173,-0.1 -39,0 c -20.3,0 -36.8,-14.4 -36.8,-32.20001 0,-17.79999 16.4,-32.2 36.8,-32.2 l 39,0 c 20.3,0 36.8,14.4 36.8,32.2 0,17.9 -16.5,32.20001 -36.8,32.20001 z m 173,0 -39,0 c -20.3,0 -36.8,-14.4 -36.8,-32.20001 0,-17.79999 16.4,-32.2 36.8,-32.2 l 39,0 c 20.3,0 36.7,14.4 36.7,32.2 0.1,17.8 -16.4,32.20001 -36.7,32.20001 z m 173.09999,0 -39,0 c -20.3,0 -36.8,-14.4 -36.8,-32.20001 0,-17.7 16.4,-32.2 36.8,-32.2 l 39,0 c 20.3,0 36.8,14.4 36.8,32.2 -0.1,17.8 -16.5,32.20001 -36.8,32.20001 z m -20.7,-112.4 -692.19999,0 c -20.3,0 -36.7,-16.5 -36.7,-36.8 l 0,-442.7 c 0,-20.3 16.4,-36.7 36.7,-36.7 l 692.09999,0 c 20.3,0 36.7,16.5 36.7,36.7 l 0,442.8 c 0.1,20.3 -16.3,36.7 -36.6,36.7 z"
       style="fill:#2a2a2a;fill-opacity:1;stroke:#000000;stroke-opacity:1" /><g
       clip-path="url(#clipPath6037)"
       transform="translate(-17.982991,62.449366)"
       style="fill:#0028ff;fill-opacity:1;stroke:#000000;stroke-opacity:1"
       id="g5744"><text
         transform="matrix(1.3916337,0,0,1.3916337,-182.33387,-176.18579)"
         sodipodi:linespacing="108%"
         id="text5758"
         y="482.76672"
         x="500.64713"
         style="font-style:normal;font-weight:normal;font-size:94.66230011px;line-height:108.00000429%;font-family:Sans;text-align:center;letter-spacing:0px;word-spacing:0px;text-anchor:middle;fill:#0028ff;fill-opacity:1;stroke:#000000;stroke-width:1px;stroke-linecap:butt;stroke-linejoin:miter;stroke-opacity:1;filter:url(#filter5934)"
         xml:space="preserve"><tspan
           style="font-style:italic;font-weight:bold;text-align:center;text-anchor:middle;fill:#0028ff;fill-opacity:1;stroke:#000000;stroke-opacity:1"
           y="482.76672"
           x="500.64713"
           id="tspan5760"
           sodipodi:role="line">MPV Lang</tspan><tspan
           style="font-style:italic;font-weight:bold;text-align:center;text-anchor:middle;fill:#0028ff;fill-opacity:1;stroke:#000000;stroke-opacity:1"
           id="tspan5762"
           y="585.00201"
           x="500.64713"
           sodipodi:role="line">Learn</tspan></text>
</g></g></svg>